# xmcd
#
# Track frame offsets: 
#        150
#        24747
#        48406
#        76140
#        122468
#        139567
#        172608
#
# Disc length: 2655 seconds
#
# Revision: 0
# Processed by: cddbd v1.5.2PL0 Copyright (c) Steve Scherf et al.
# Submitted via: ExactAudioCopy v0.99pb3
#
DISCID=470a5d07
DTITLE=Joe Bonamassa - Live From Nowhere In Particular 2008 CD1
DYEAR=2008
DGENRE=Blues
TTITLE0=Bridge To Better Days
TTITLE1=Walk In My Shadows
TTITLE2=So Many Roads
TTITLE3=India - Mountain Time
TTITLE4=Another Kinda Love
TTITLE5=Sloe Gin
TTITLE6=One Of These Days
EXTD=
EXTT0=
EXTT1=
EXTT2=
EXTT3=
EXTT4=
EXTT5=
EXTT6=
PLAYORDER=
